<svg width="128" height="128" viewBox="0 0 128 128" fill="none" xmlns="http://www.w3.org/2000/svg">
  <path d="M69.2021 35C71.0947 36.5022 74.1259 39.4713 73.4668 41.7959L70.7979 51.2041L88.3262 52.835C91.437 53.1245 91.8848 55.3075 91.7402 56.8613L91.0557 64.2139L88.0957 68.8828C90.099 69.0692 85.8938 74.447 83.541 77.1123C85.5442 77.2987 81.4164 81.8584 79.1016 84.1152L65.6631 82.8652L65.5908 82.5723L57.25 84.0508C53.2879 84.7529 51.7248 81.6969 51.4385 80.0811L40.2949 82.0557L36 57.8184L47.1436 55.8438L46.7139 53.4199L60.9424 35L61.4326 49.4639L57.6123 53.6953L61.3203 54.5615L57.792 63.3105L60.6025 64.8438L64.5723 67.1875L63.9434 77.9629L65.2832 81.3213L64.5703 78.417L68.5684 66.2354L62.623 61.5684L69.7725 53.291L66.4355 52.9805L69.2021 50.2256V35Z" fill="#FF3838"/>
</svg>
